<mxfile host="app.diagrams.net" modified="2024-01-30T16:58:55.732Z" agent="Mozilla/5.0 (Macintosh; Intel Mac OS X 10_15_7) AppleWebKit/537.36 (KHTML, like Gecko) Chrome/121.0.0.0 Safari/537.36" etag="UsBPUlS4sesQ3Bg9ZxEk" version="23.0.2" type="github">
  <diagram id="R2lEEEUBdFMjLlhIrx00" name="Page-1">
    <mxGraphModel dx="1231" dy="544" grid="1" gridSize="10" guides="1" tooltips="1" connect="1" arrows="1" fold="1" page="1" pageScale="1" pageWidth="850" pageHeight="1100" math="0" shadow="0" extFonts="Permanent Marker^https://fonts.googleapis.com/css?family=Permanent+Marker">
      <root>
        <mxCell id="0" />
        <mxCell id="1" parent="0" />
        <mxCell id="-7m1raSUvEOr5EKGqxLP-1" value="BRANCH" style="rounded=0;whiteSpace=wrap;html=1;" vertex="1" parent="1">
          <mxGeometry x="140" y="230" width="120" height="50" as="geometry" />
        </mxCell>
        <mxCell id="-7m1raSUvEOr5EKGqxLP-2" value="VEHICLE TYPE" style="rounded=0;whiteSpace=wrap;html=1;" vertex="1" parent="1">
          <mxGeometry x="470" y="210" width="130" height="60" as="geometry" />
        </mxCell>
        <mxCell id="-7m1raSUvEOr5EKGqxLP-4" value="CUSTOMER" style="rounded=0;whiteSpace=wrap;html=1;" vertex="1" parent="1">
          <mxGeometry x="370" y="425" width="110" height="50" as="geometry" />
        </mxCell>
        <mxCell id="-7m1raSUvEOr5EKGqxLP-5" value="&lt;u&gt;branch name&lt;/u&gt;" style="ellipse;whiteSpace=wrap;html=1;" vertex="1" parent="1">
          <mxGeometry x="150" y="120" width="100" height="50" as="geometry" />
        </mxCell>
        <mxCell id="-7m1raSUvEOr5EKGqxLP-6" value="" style="endArrow=none;html=1;rounded=0;" edge="1" parent="1">
          <mxGeometry width="50" height="50" relative="1" as="geometry">
            <mxPoint x="199.5" y="230" as="sourcePoint" />
            <mxPoint x="199.5" y="170" as="targetPoint" />
          </mxGeometry>
        </mxCell>
        <mxCell id="-7m1raSUvEOr5EKGqxLP-7" value="&lt;u&gt;custromerID&lt;/u&gt;" style="ellipse;whiteSpace=wrap;html=1;" vertex="1" parent="1">
          <mxGeometry x="210" y="420" width="80" height="55" as="geometry" />
        </mxCell>
        <mxCell id="-7m1raSUvEOr5EKGqxLP-8" value="" style="endArrow=none;html=1;rounded=0;entryX=0;entryY=0.5;entryDx=0;entryDy=0;" edge="1" parent="1" target="-7m1raSUvEOr5EKGqxLP-4">
          <mxGeometry width="50" height="50" relative="1" as="geometry">
            <mxPoint x="290" y="449.5" as="sourcePoint" />
            <mxPoint x="360" y="449.5" as="targetPoint" />
          </mxGeometry>
        </mxCell>
        <mxCell id="-7m1raSUvEOr5EKGqxLP-10" value="&lt;u&gt;typeName&lt;/u&gt;" style="ellipse;whiteSpace=wrap;html=1;" vertex="1" parent="1">
          <mxGeometry x="660" y="220" width="110" height="50" as="geometry" />
        </mxCell>
        <mxCell id="-7m1raSUvEOr5EKGqxLP-11" value="" style="endArrow=none;html=1;rounded=0;" edge="1" parent="1">
          <mxGeometry width="50" height="50" relative="1" as="geometry">
            <mxPoint x="600" y="244.5" as="sourcePoint" />
            <mxPoint x="660" y="244.5" as="targetPoint" />
          </mxGeometry>
        </mxCell>
        <mxCell id="-7m1raSUvEOr5EKGqxLP-12" value="size" style="ellipse;whiteSpace=wrap;html=1;" vertex="1" parent="1">
          <mxGeometry x="480" y="70" width="110" height="50" as="geometry" />
        </mxCell>
        <mxCell id="-7m1raSUvEOr5EKGqxLP-14" value="" style="endArrow=none;html=1;rounded=0;exitX=0.5;exitY=0;exitDx=0;exitDy=0;" edge="1" parent="1" source="-7m1raSUvEOr5EKGqxLP-2">
          <mxGeometry width="50" height="50" relative="1" as="geometry">
            <mxPoint x="534.5" y="190" as="sourcePoint" />
            <mxPoint x="534.5" y="120" as="targetPoint" />
          </mxGeometry>
        </mxCell>
      </root>
    </mxGraphModel>
  </diagram>
</mxfile>
